# xmcd
#
# Track frame offsets: 
#        150
#        18838
#        41550
#        62663
#        90000
#        109913
#        125888
#        139238
#        158700
#
# Disc length: 2385 seconds
#
# Revision: 3
# Processed by: cddbd v1.5.2PL0 Copyright (c) Steve Scherf et al.
# Submitted via: ExactAudioCopy v0.99pb5
#
DISCID=6f094f09
DTITLE=Byther Smith - Housefire
DYEAR=1984
DGENRE=blues
TTITLE0=Money Tree
TTITLE1=Live On And Sing The Blues
TTITLE2=Martha Dear
TTITLE3=Look All Around You
TTITLE4=The Man Wants Me Dead
TTITLE5=Knockdown
TTITLE6=Wait And See
TTITLE7=Love Me Like I Love You
TTITLE8=Here I Am
EXTD=CD BB 9503\n\nSubmitted 7/2/97\n[Jmccoy@efn.org]
EXTT0=
EXTT1=
EXTT2=
EXTT3=
EXTT4=
EXTT5=
EXTT6=
EXTT7=
EXTT8=
PLAYORDER=
